HIERARCHY
ROOT Hips
{
	OFFSET -0.001795 -0.223333 0.028219
	CHANNELS 6 Xposition Yposition Zposition Zrotation Yrotation Xrotation 
	JOINT LeftUpLeg
	{
		OFFSET 0.069520 -0.091406 -0.006815
		CHANNELS 3 Zrotation Yrotation Xrotation
		JOINT LeftLeg
		{
			OFFSET 0.034277 -0.375199 -0.004496
			CHANNELS 3 Zrotation Yrotation Xrotation
			JOINT LeftFoot
			{
				OFFSET -0.013596 -0.397961 -0.043693
				CHANNELS 3 Zrotation Yrotation Xrotation
				JOINT LeftToe
				{
					OFFSET 0.026358 -0.055791 0.119288
					CHANNELS 3 Zrotation Yrotation Xrotation
					End Site
					{
						OFFSET 0.000000 0.000000 0.000000
					}
				}
			}
		}
	}
	JOINT RightUpLeg
	{
		OFFSET -0.067670 -0.090522 -0.004320
		CHANNELS 3 Zrotation Yrotation Xrotation
		JOINT RightLeg
		{
			OFFSET -0.038290 -0.382569 -0.008850
			CHANNELS 3 Zrotation Yrotation Xrotation
			JOINT RightFoot
			{
				OFFSET 0.015774 -0.398415 -0.042312
				CHANNELS 3 Zrotation Yrotation Xrotation
				JOINT RightToe
				{
					OFFSET -0.025372 -0.048144 0.123348
					CHANNELS 3 Zrotation Yrotation Xrotation
					End Site
					{
						OFFSET 0.000000 0.000000 0.000000
					}
				}
			}
		}
	}
	JOINT Spine
	{
		OFFSET -0.002533 0.108963 -0.026696
		CHANNELS 3 Zrotation Yrotation Xrotation
		JOINT Spine1
		{
			OFFSET 0.005487 0.135180 0.001092
			CHANNELS 3 Zrotation Yrotation Xrotation
			JOINT Spine2
			{
				OFFSET 0.001457 0.052922 0.025425
				CHANNELS 3 Zrotation Yrotation Xrotation
				JOINT Neck
				{
					OFFSET -0.002778 0.213870 -0.042857
					CHANNELS 3 Zrotation Yrotation Xrotation
					JOINT Head
					{
						OFFSET 0.005152 0.064970 0.051349
						CHANNELS 3 Zrotation Yrotation Xrotation
						End Site
						{
							OFFSET 0.000000 0.000000 0.000000
						}
					}
				}
				JOINT LeftShoulder
				{
					OFFSET 0.078845 0.121749 -0.034090
					CHANNELS 3 Zrotation Yrotation Xrotation
					JOINT LeftArm
					{
						OFFSET 0.090977 0.030469 -0.008868
						CHANNELS 3 Zrotation Yrotation Xrotation
						JOINT LeftForeArm
						{
							OFFSET 0.259612 -0.012772 -0.027456
							CHANNELS 3 Zrotation Yrotation Xrotation
							JOINT LeftHand
							{
								OFFSET 0.249234 0.008986 -0.001171
								CHANNELS 3 Zrotation Yrotation Xrotation
								End Site
								{
									OFFSET 0.000000 0.000000 0.000000
								}
							}
						}
					}
				}
				JOINT RightShoulder
				{
					OFFSET -0.081759 0.118833 -0.038615
					CHANNELS 3 Zrotation Yrotation Xrotation
					JOINT RightArm
					{
						OFFSET -0.096012 0.032551 -0.009143
						CHANNELS 3 Zrotation Yrotation Xrotation
						JOINT RightForeArm
						{
							OFFSET -0.253742 -0.013329 -0.021401
							CHANNELS 3 Zrotation Yrotation Xrotation
							JOINT RightHand
							{
								OFFSET -0.255298 0.007772 -0.005559
								CHANNELS 3 Zrotation Yrotation Xrotation
								End Site
								{
									OFFSET 0.000000 0.000000 0.000000
								}
							}
						}
					}
				}
			}
		}
	}
}
MOTION
Frames: 7
Frame Time: 0.050000
-0.474167 0.885861 -0.998007 -4.187430 -15.624369 18.562031 1.190196 -0.554728 -43.313488 4.449133 -0.833825 48.444753 6.251696 12.865416 -0.261608 0.000000 0.000000 0.000000 2.240860 8.006157 -43.920419 7.758555 0.004919 31.267998 -11.065347 -28.272093 7.457328 0.000000 0.000000 0.000000 4.407036 0.498786 67.958031 -3.214061 1.064839 -33.215417 -6.556738 3.097222 29.293184 15.065551 -2.974478 -43.595458 0.000000 0.000000 0.000000 19.774580 -33.720785 6.386435 12.467393 -58.666508 -10.231196 48.338485 19.832966 8.855381 0.000000 0.000000 0.000000 8.701278 9.159291 3.704877 72.779975 46.934361 23.392993 -86.228992 48.241452 -35.871012 0.000000 0.000000 0.000000 
-0.474528 0.879823 -1.012956 -4.227107 -15.603110 18.706913 1.498333 -0.332584 -45.240401 4.390331 -0.869379 49.398732 6.519364 13.393488 -0.030283 0.000000 0.000000 0.000000 1.666121 8.355877 -46.000606 8.896820 -0.389733 32.525082 -11.423354 -29.063871 7.731433 0.000000 0.000000 0.000000 3.779342 1.011332 68.993408 -3.380477 1.078776 -33.773926 -6.522994 2.977387 29.811635 14.354857 -3.193934 -41.259129 0.000000 0.000000 0.000000 21.264587 -33.048560 5.814883 12.176378 -58.882743 -10.135271 48.809013 18.710063 8.460655 0.000000 0.000000 0.000000 8.689990 9.965465 4.092056 71.767876 48.796884 24.324799 -83.279710 45.697512 -31.813759 0.000000 0.000000 0.000000 
-0.477116 0.874004 -1.025424 -3.849777 -15.022774 18.205320 1.886560 -0.282971 -45.764714 3.738775 -0.651595 49.152287 6.862397 14.060612 -0.528324 0.000000 0.000000 0.000000 1.186169 8.256232 -46.720680 9.662483 -0.742732 32.960440 -11.903113 -30.006238 6.925287 0.000000 0.000000 0.000000 3.107889 1.359652 70.656080 -3.040149 1.032547 -33.806641 -6.846257 2.799431 29.711381 13.386746 -2.871057 -40.761477 0.000000 0.000000 0.000000 22.975036 -32.457695 5.259499 10.863216 -58.348579 -9.395700 49.961152 19.313333 8.942629 0.000000 0.000000 0.000000 6.881308 10.141305 4.124480 74.679540 50.380303 27.358315 -77.617085 43.742799 -27.124220 0.000000 0.000000 0.000000 
-0.481665 0.868706 -1.035222 -3.545020 -13.855836 18.138709 2.068150 -0.399249 -47.092924 3.311938 -0.660310 50.977316 6.834231 13.911342 -2.683024 0.000000 0.000000 0.000000 0.818199 8.184252 -47.893431 10.175616 -1.039463 35.920372 -10.539000 -27.339270 2.409973 0.000000 0.000000 0.000000 2.898205 1.006535 71.164662 -3.183829 1.072919 -33.538153 -7.259320 2.411121 30.134518 12.758724 -2.720090 -40.382779 0.000000 0.000000 0.000000 24.276112 -32.008194 4.788261 9.770789 -57.125443 -8.558027 52.151329 19.697490 9.603774 0.000000 0.000000 0.000000 6.660613 11.062596 4.505810 75.766859 51.259160 28.677334 -73.946218 43.314790 -25.038242 0.000000 0.000000 0.000000 
-0.487757 0.863344 -1.041798 -2.901319 -12.540234 17.900965 2.340520 -0.522895 -48.796215 3.057649 -0.848697 52.667005 6.089845 12.373751 -1.904351 0.000000 0.000000 0.000000 0.254711 7.794388 -48.327458 10.735776 -1.421106 39.508505 -9.037728 -23.545155 -4.199546 0.000000 0.000000 0.000000 2.726883 0.576156 72.724653 -3.468985 1.111731 -34.460401 -7.823755 1.913170 30.619108 13.170229 -2.873821 -40.572003 0.000000 0.000000 0.000000 25.176138 -30.981466 4.361250 8.448476 -55.975132 -7.708116 56.792001 18.807829 10.248550 0.000000 0.000000 0.000000 7.202776 10.812817 4.424173 76.639730 51.745630 29.546885 -70.303983 44.565356 -24.193364 0.000000 0.000000 0.000000 
-0.495225 0.856400 -1.044522 -2.435173 -12.427992 17.759621 1.858005 -0.680381 -51.239176 3.625656 -1.372354 54.679150 6.898956 14.402597 3.186413 0.000000 0.000000 0.000000 -0.145366 7.630573 -48.443538 11.513521 -1.771005 44.508810 -7.679967 -18.368718 -12.216175 0.000000 0.000000 0.000000 1.504591 1.538549 73.699498 -2.853539 1.033828 -34.272108 -8.252398 1.869607 30.847316 11.849364 -2.533416 -39.366712 0.000000 0.000000 0.000000 27.488896 -27.138024 3.375564 5.986978 -55.778922 -6.592212 61.426873 17.486362 10.653377 0.000000 0.000000 0.000000 7.544749 10.066102 4.142468 75.266866 51.572955 28.590854 -67.094132 47.344812 -24.517371 0.000000 0.000000 0.000000 
-0.503930 0.846957 -1.042505 -2.228060 -12.242798 17.770610 1.735723 -0.621265 -55.508518 4.715370 -2.485175 61.480042 5.119148 11.671727 7.192858 0.000000 0.000000 0.000000 0.806005 8.253432 -49.702233 10.461675 -1.181087 51.179067 -7.278639 -15.524302 -17.353714 0.000000 0.000000 0.000000 0.786490 2.042007 74.203131 -3.003458 1.041564 -35.644280 -8.175987 2.549566 32.593831 11.517200 -2.613557 -38.050387 0.000000 0.000000 0.000000 27.519112 -26.167458 3.240039 4.107709 -53.454808 -5.747655 67.318553 13.451941 9.358687 0.000000 0.000000 0.000000 8.592673 8.655930 3.693709 72.870403 50.008784 25.794358 -66.026993 52.260369 -26.812132 0.000000 0.000000 0.000000 
